# AST/ASF file generated using VICON BodyLanguage
# -----------------------------------------------
:version 1.10
:name VICON
:units
  mass 1.0
  length 0.45
  angle deg
:documentation
   .ast/.asf automatically generated from VICON data using
   VICON BodyBuilder and BodyLanguage model FoxedUp or BRILLIANT.MOD
:root
   order TX TY TZ RX RY RZ
   axis XYZ
   position 0 0 0  
   orientation 0 -0 0 
:bonedata
  begin
     id 1 
     name lhipjoint
     direction 0.432694 -0.693742 0.575759 
     length 2.19277 
     axis 0 -0 0  XYZ
  end
  begin
     id 2 
     name lfemur
     direction 0.34202 -0.939693 0  
     length 6.69022  
     axis 0 -0 20  XYZ
    dof rx ry rz
    limits (-160.0 20.0)
           (-70.0 70.0)
           (-60.0 70.0)
  end
  begin
     id 3 
     name ltibia
     direction 0.34202 -0.939693 0   
     length 6.50337   
     axis 0 -0 20   XYZ
    dof rx
    limits (-10.0 170.0)
  end
  begin
     id 4 
     name lfoot
     direction 0.158999 -0.435969 0.885805   
     length 2.70564   
     axis -90 -1.13533e-015 20   XYZ
    dof rx rz
    limits (-45.0 90.0)
           (-70.0 20.0)
  end
  begin
     id 5 
     name ltoes
     direction -0.00592919 0.00964381 0.999936   
     length 1.29929   
     axis -90 -1.13533e-015 20   XYZ
    dof rx
    limits (-90.0 20.0)
  end
  begin
     id 6 
     name rhipjoint
     direction -0.414359 -0.700339 0.581234   
     length 2.17212  
     axis 0 -0 0  XYZ 
  end
  begin
     id 7 
     name rfemur
     direction -0.34202 -0.939693 0   
     length 7.17659   
     axis 0 -0 -20   XYZ
    dof rx ry rz
    limits (-160.0 20.0)
           (-70.0 70.0)
           (-70.0 60.0)
  end
  begin
     id 8 
     name rtibia
     direction -0.34202 -0.939693 0   
     length 6.36669   
     axis 0 -0 -20   XYZ
    dof rx
    limits (-10.0 170.0)
 end
 begin
     id 9 
     name rfoot
     direction -0.137064 -0.37658 0.916188   
     length 2.22351  
     axis -90 1.13533e-015 -20   XYZ
    dof rx rz
    limits (-45.0 90.0)
           (-20.0 70.0)
  end
  begin
     id 10 
     name rtoes
     direction -0.000784077 -0.00289101 0.999996   
     length 1.09522   
     axis -90 1.13533e-015 -20   XYZ
    dof rx
    limits (-90.0 20.0)
  end
  begin
     id 11 
     name lowerback
     direction -0.0176242 0.984912 -0.172157   
     length 1.65301   
     axis 0 -0 0   XYZ
    dof rx ry rz
    limits (-20.0 45.0)
           (-30.0 30.0)
           (-30.0 30.0)
  end
  begin
     id 12 
     name upperback
     direction -0.00218128 0.998776 -0.0494072   
     length 1.67776   
     axis 0 -0 0   XYZ
    dof rx ry rz
    limits (-20.0 45.0)
           (-30.0 30.0)
           (-30.0 30.0)
  end
  begin
     id 13 
     name thorax
     direction 0.00544186 0.999658 0.0255711   
     length 1.72293   
     axis 0 -0 0   XYZ
    dof rx ry rz
    limits (-20.0 45.0)
           (-30.0 30.0)
           (-30.0 30.0)
  end
  begin
     id 14 
     name lowerneck
     direction -0.105325 0.983841 0.144785   
     length 2.14226   
     axis 0 -0 0   XYZ
    dof rx ry rz
    limits (-20.0 45.0)
           (-30.0 30.0)
           (-30.0 30.0)
  end
  begin
     id 15 
     name upperneck
     direction 0.0547957 0.988053 -0.144041   
     length 2.17508   
     axis 0 -0 0   XYZ
    dof rx ry rz
    limits (-20.0 45.0)
           (-30.0 30.0)
           (-30.0 30.0)
  end
  begin
     id 16
     name head
     direction 0.0247488 0.997534 -0.0656813  
     length 2.20048  
     axis 0 -0 0   XYZ
    dof rx ry rz
    limits (-20.0 45.0)
           (-30.0 30.0)
           (-30.0 30.0)
  end
  begin
     id 17 
     name lclavicle
     direction 0.820559 0.567247 -0.0701026  
     length 4.09615  
     axis 0 -0 0   XYZ
    dof ry rz
    limits (-20.0 10.0)
           (0.0 20.0)
  end
  begin
     id 18 
     name lhumerus
     direction 0.999977 -0.0067566 -9.96392e-005   
     length 4.59333   
     axis -180 -30 -90   XYZ
    dof rx ry rz
    limits (-60.0 90.0)
           (-90.0 90.0)
           (-90.0 90.0)
  end
  begin
     id 19
     name lradius
     direction 1 -4.48982e-011 -2.53425e-027   
     length 2.81151   
     axis -180 -30 -90   XYZ
    dof rx
    limits (-10.0 170.0)
  end
  begin
     id 20
     name lwrist
     direction 1 -4.48939e-011 -7.39254e-028   
     length 1.40576   
     axis 2.56395e-016 90 90   XYZ
    dof ry
    limits (-180.0 0.0)
 end
  begin
     id 21 
     name lhand
     direction 1 -4.48939e-011 -1.47851e-027   
     length 0.895651   
     axis 9.43423e-016 90 90   XYZ
    dof rx rz
    limits (-90.0 90.0)
           (-45.0 45.0)
  end
  begin
     id 22 
     name lfingers
     direction 1 -4.48978e-011 -2.95702e-027   
     length 0.722097   
     axis 1.88685e-015 90 90   XYZ
    dof rx
    limits (0.0 90.0)
  end
  begin
     id 23
     name lthumb
     direction 0.707107 -6.34931e-011 0.707107   
     length 1.03679   
     axis -90 45 -9.86935e-015   XYZ
    dof rx rz
    limits (-45.0 45.0)
           (-45.0 45.0)
  end
  begin
     id 24 
     name rclavicle
     direction -0.831414 0.553102 -0.0531864   
     length 4.24872  
     axis 0 -0 0   XYZ 
    dof ry rz
    limits (-10.0 20.0)
           (-20.0 0.0)
  end
  begin
     id 25 
     name rhumerus
     direction -0.999916 -0.000939607 0.0129331  
     length 4.74834   
     axis -180 30 90   XYZ
    dof rx ry rz
    limits (-90.0 60.0)
           (-90.0 90.0)
           (-90.0 90.0)
  end
  begin
     id 26 
     name rradius
     direction -1 -4.48956e-011 -1.31752e-027   
     length 2.79907   
     axis -180 30 90   XYZ
    dof rx
    limits (-10.0 170.0)
  end
  begin
     id 27 
     name rwrist
     direction -1 -4.4897e-011 -7.39254e-028   
     length 1.39954   
     axis 2.56395e-016 -90 -90   XYZ
    dof ry
    limits (-180.0 0.0)
  end
  begin
     id 28
     name rhand
     direction -0.999997 -0.00250697 0.000800838   
     length 0.953304   
     axis 9.43423e-016 -90 -90   XYZ
    dof rx rz
    limits (-90.0 90.0)
           (-45.0 45.0)
  end
  begin
     id 29
     name rfingers
     direction -1 -4.48954e-011 -2.95702e-027   
     length 0.763342   
     axis 1.88685e-015 -90 -90   XYZ
    dof rx
    limits (0.0 90.0)
  end
  begin
     id 30
     name rthumb
     direction -0.709701 -0.00217037 0.7045   
     length 1.10115   
     axis -90 -45 9.86935e-015   XYZ
    dof rx rz
    limits (-45.0 45.0)
           (-45.0 45.0)
  end
:hierarchy
  begin
    root lhipjoint rhipjoint lowerback
    lhipjoint lfemur
    lfemur ltibia
    ltibia lfoot
    lfoot ltoes
    rhipjoint rfemur
    rfemur rtibia
    rtibia rfoot
    rfoot rtoes
    lowerback upperback
    upperback thorax
    thorax lowerneck lclavicle rclavicle
    lowerneck upperneck
    upperneck head
    lclavicle lhumerus
    lhumerus lradius
    lradius lwrist
    lwrist lhand lthumb
    lhand lfingers
    rclavicle rhumerus
    rhumerus rradius
    rradius rwrist
    rwrist rhand rthumb
    rhand rfingers
  end

#!OML:ASF G:\ViconDB\ViconDB\414\test\team2\shane.ASF
:FULLY-SPECIFIED
:DEGREES
1
root 3.55801 16.6312 -35.3042 -5.92559 0.195435 -5.34327
lowerback 8.25959 -0.34502 5.99995
upperback 3.53249 0.0463301 3.00984
thorax -0.960707 0.0541857 -0.259498
lowerneck -16.7425 -3.70383 -7.68068
upperneck 14.1701 -4.47757 7.36038
head 7.449 -1.88272 3.17134
rclavicle -1.30701e-014 -1.23246e-014
rhumerus -39.5753 5.18288 -93.2117
rradius 30.5337
rwrist 34.9441
rhand -29.6915 -12.4904
rfingers 7.12502
rthumb -3.01948 -42.4487
lclavicle -1.30701e-014 -1.23246e-014
lhumerus -34.6457 -22.4132 99.6728
lradius 28.9326
lwrist -16.6638
lhand -35.7186 5.87282
lfingers 7.12502
lthumb -8.8383 35.6677
rfemur 9.08477 -17.5604 20.7441
rtibia 25.4385
rfoot -29.5865 7.52561
rtoes -2.46183
lfemur -6.4058 6.60267 -0.10463
ltibia 50.2475
lfoot -20.8508 -18.0924
ltoes -17.5738
2
root 3.53935 16.6261 -35.2796 -6.18496 -0.105538 -5.26746
lowerback 8.32452 -0.32376 5.87654
upperback 3.91328 0.0495366 3.16397
thorax -0.601383 0.0664946 -0.0313225
lowerneck -17.2371 -3.68902 -7.78615
upperneck 14.4905 -4.39162 7.25332
head 7.63236 -1.84688 3.16234
rclavicle -9.79014e-015 -2.3059e-014
rhumerus -38.5956 5.23274 -92.7153
rradius 30.3421
rwrist 35.1805
rhand -29.6501 -12.3304
rfingers 7.12502
rthumb -2.97956 -42.2893
lclavicle -9.79014e-015 -2.3059e-014
lhumerus -34.157 -22.0899 99.4895
lradius 28.807
lwrist -16.9706
lhand -35.6209 6.06227
lfingers 7.12502
lthumb -8.744 35.8612
rfemur 9.50954 -17.5951 20.5758
rtibia 25.3567
rfoot -29.7306 7.5213
rtoes -3.08209
lfemur -7.13422 6.79961 -0.11168
ltibia 52.1809
lfoot -20.1715 -18.045
ltoes -15.8747
3
root 3.51267 16.6078 -35.266 -6.25651 -0.204658 -5.50009
lowerback 8.52039 -0.332827 6.09896
upperback 3.97548 0.0684194 3.23499
thorax -0.642291 0.0777714 -0.0826498
lowerneck -17.0045 -3.7198 -7.48979
upperneck 14.5823 -4.49242 7.05131
head 7.61858 -1.9016 3.03609
rclavicle 4.91992e-015 1.35174e-014
rhumerus -37.9502 4.86639 -92.4705
rradius 30.0959
rwrist 35.6911
rhand -29.675 -12.5264
rfingers 7.12502
rthumb -3.00357 -42.485
lclavicle 4.91992e-015 1.35174e-014
lhumerus -34.7067 -22.9401 99.7511
lradius 29.3657
lwrist -15.5503
lhand -35.7931 6.41103
lfingers 7.12502
lthumb -8.91013 36.2029
rfemur 9.63588 -16.9916 21.1227
rtibia 25.3573
rfoot -29.6639 7.31296
rtoes -2.22281
lfemur -8.17567 7.11387 0.308992
ltibia 54.1025
lfoot -19.9003 -18.007
ltoes -14.5738
4
root 3.49748 16.6027 -35.2343 -6.39508 -0.654015 -5.54875
lowerback 8.25865 -0.260617 6.18516
upperback 4.36726 0.122264 3.33282
thorax -0.0869082 0.122684 -0.0334342
lowerneck -17.3411 -3.72098 -7.20694
upperneck 14.9418 -4.48096 6.63183
head 7.7775 -1.91254 2.85036
rclavicle -1.635e-014 -2.38542e-015
rhumerus -36.67 4.59164 -92.0062
rradius 29.5084
rwrist 36.5147
rhand -29.7485 -12.7644
rfingers 7.12502
rthumb -3.07459 -42.722
lclavicle -1.635e-014 -2.38542e-015
lhumerus -34.2117 -22.6124 99.4543
lradius 29.001
lwrist -15.5381
lhand -36.1503 6.78153
lfingers 7.12502
lthumb -9.25485 36.5584
rfemur 9.9554 -16.792 21.1406
rtibia 25.3381
rfoot -29.8086 7.53472
rtoes -2.01588
lfemur -8.83697 7.54556 0.449956
ltibia 55.8755
lfoot -20.259 -17.5165
ltoes -14.3663
5
root 3.47915 16.585 -35.2019 -6.59355 -0.995826 -5.5507
lowerback 8.48997 -0.243128 6.21515
upperback 4.47833 0.161411 3.40205
thorax -0.096692 0.143006 0.0188536
lowerneck -17.1147 -3.71048 -7.11347
upperneck 15.1755 -4.48246 6.45104
head 7.80899 -1.92899 2.77769
rclavicle 5.96354e-015 -1.11319e-014
rhumerus -35.8773 4.59198 -91.7618
rradius 29.2599
rwrist 35.9107
rhand -29.611 -12.4872
rfingers 7.12502
rthumb -2.94174 -42.4466
lclavicle 5.96354e-015 -1.11319e-014
lhumerus -34.6951 -23.1538 99.8642
lradius 29.1084
lwrist -13.3654
lhand -37.1828 5.23313
lfingers 7.12502
lthumb -10.251 34.9633
rfemur 10.2547 -16.3424 21.2683
rtibia 25.3955
rfoot -29.9775 7.10073
rtoes -2.81356
lfemur -9.45363 7.86266 0.53015
ltibia 57.5593
lfoot -20.6019 -16.9942
ltoes -13.0753
6
root 3.45819 16.5685 -35.1695 -6.7421 -1.32231 -5.69888
lowerback 8.44466 -0.26299 6.33858
upperback 4.71273 0.124265 3.50006
thorax 0.172261 0.134559 0.0558003
lowerneck -17.2976 -3.66878 -6.73336
upperneck 15.7011 -4.4376 5.95136
head 7.99099 -1.92953 2.55476
rclavicle -3.8763e-015 -3.33958e-014
rhumerus -34.7283 4.28831 -91.3781
rradius 28.5068
rwrist 37.1054
rhand -29.7419 -12.7018
rfingers 7.12502
rthumb -3.06821 -42.6594
lclavicle -3.8763e-015 -3.33958e-014
lhumerus -34.5246 -22.7229 99.3403
lradius 29.0355
lwrist -14.7137
lhand -36.5578 5.45818
lfingers 7.12502
lthumb -9.64797 35.2172
rfemur 10.562 -15.972 21.5479
rtibia 25.3489
rfoot -30.0682 6.86792
rtoes -3.04707
lfemur -10.1288 8.19591 0.781137
ltibia 59.0746
lfoot -20.9706 -16.6315
ltoes -13.7001
